<svg width="314" height="53" viewBox="0 0 314 53" fill="none" xmlns="http://www.w3.org/2000/svg">
<path d="M162.422 13.5259H153.329L138.16 40.4402C139.979 40.4402 142.285 38.9424 143.35 37.0816L144.104 35.7653C144.68 35.0392 145.656 34.4491 146.454 34.4491H163.353C164.107 34.5399 164.95 35.0392 165.482 35.72L166.236 37.0816C167.3 38.9424 169.607 40.4402 171.425 40.4402H177.635L162.422 13.5259ZM162.155 32.8152H144.991L154.394 16.1129L162.865 31.1359C163.353 32.0436 163.042 32.8152 162.155 32.8152Z" fill="#424242"/>
<path d="M257.518 13.5259H248.426L233.257 40.4402C235.075 40.4402 237.382 38.9424 238.446 37.0816L239.2 35.7653C239.777 35.0392 240.753 34.4491 241.551 34.4491H258.449C259.203 34.5399 260.046 35.0392 260.578 35.72L261.332 37.0816C262.397 38.9424 264.703 40.4402 266.522 40.4402H272.731L257.518 13.5259ZM257.252 32.8152H240.087L249.49 16.1129L257.962 31.1359C258.494 32.0436 258.139 32.8152 257.252 32.8152Z" fill="#424242"/>
<path d="M216.592 29.4112C216.156 27.7773 214.676 26.5065 212.848 26.1888V26.0526C214.023 25.7349 214.589 24.5094 214.589 24.5094C215.765 21.4685 215.721 18.0645 214.546 15.0236C214.546 15.0236 213.936 13.5259 212.238 13.5259H184.812V27.0057V37.0816C184.812 38.9424 186.248 40.4402 188.033 40.4402H212.021C214.154 40.4402 216.069 39.0332 216.548 37.1723C217.288 34.6307 217.288 31.9529 216.592 29.4112ZM209.06 35.4022C209.06 37.2631 207.624 38.7609 205.839 38.7609H191.298V31.1813C191.298 29.3658 192.735 27.8227 194.563 27.8227H205.882C207.667 27.8227 209.104 29.3204 209.104 31.1813V35.4022H209.06ZM207.754 22.7848C207.754 24.6456 206.318 26.1434 204.533 26.1434H194.52C192.735 26.1434 191.298 24.6456 191.298 22.7848V15.2052H206.144C207.014 15.2052 207.754 15.9768 207.754 16.8845V22.7848Z" fill="#424242"/>
<path fill-rule="evenodd" clip-rule="evenodd" d="M229.669 40.4401C229.669 42.4284 228.069 44.0287 226.08 44.0287C224.092 44.0287 222.492 42.4284 222.492 40.4401C222.492 38.4519 224.092 36.8516 226.08 36.8516C228.02 36.8516 229.669 38.4519 229.669 40.4401Z" fill="#424242"/>
<path fill-rule="evenodd" clip-rule="evenodd" d="M291.567 38.7155C290.999 38.6247 290.563 38.1708 290.563 37.5354C290.563 37.1723 290.737 36.8092 290.999 36.5823L311.599 19.29C312.691 18.2915 313.214 17.5653 313.433 17.0207C313.607 16.7029 313.694 16.3399 313.694 15.9314C313.694 14.5698 312.647 13.5259 311.381 13.5259H282.27C282.27 14.4336 283.012 15.2052 283.885 15.2052L304.66 15.2506C304.878 15.296 305.009 15.4775 305.009 15.6591C305.009 15.7952 304.922 15.9314 304.835 16.0221L282.707 34.7668C282.096 35.3569 281.703 36.2192 281.703 37.1723C281.703 38.9424 283.056 40.3948 284.758 40.4402H284.976H312.385C313.258 40.4402 314 39.6686 314 38.7609L291.567 38.7155Z" fill="#424242"/>
<path fill-rule="evenodd" clip-rule="evenodd" d="M25.8464 22.7692C25.8464 24.6269 24.4081 26.1221 22.6211 26.1221H9.67607C7.88905 26.1221 6.45071 24.6269 6.45071 22.7692V13.5259H0V26.983V40.4402H6.45071V31.1969C6.45071 29.3845 7.84546 27.8439 9.67607 27.8439H22.6211C24.4081 27.8439 25.8464 29.3845 25.8464 31.1969V40.4402H32.2971V26.983V13.5259H25.8464V22.7692Z" fill="#424242"/>
<path fill-rule="evenodd" clip-rule="evenodd" d="M125.048 27.9134L104.955 20.2885C103.996 19.88 103.342 18.9269 103.342 17.8376C103.342 16.4306 104.344 15.296 105.652 15.2052H105.695H105.87H127.576C128.447 15.2052 129.188 14.4336 129.188 13.5259H103.08C99.6806 13.5259 96.8911 16.4306 96.8911 19.9708C96.8911 22.5578 98.373 24.8272 100.509 25.8257L119.207 32.906C120.34 33.3145 121.125 34.4491 121.125 35.7653C121.125 37.4446 119.817 38.7609 118.248 38.7609H97.327C97.8936 39.7594 98.9396 40.4402 100.116 40.4402H100.073H122.999C126.399 40.4402 129.145 37.5808 129.145 34.0406C129.232 31.1813 127.488 28.7758 125.048 27.9134Z" fill="#424242"/>
<path fill-rule="evenodd" clip-rule="evenodd" d="M41.7087 26.9612C39.1369 41.3442 48.0939 53.0002 61.7069 53.0002C72.0385 53.0002 82.0155 46.3145 87.3808 36.8138C87.3808 36.8138 79.754 37.7814 77.6256 39.3209C77.3596 39.4969 76.9162 40.0687 76.9162 40.0687C72.3046 45.9626 65.6977 49.8333 59.002 49.8333C48.0939 49.8333 41.0879 39.6288 43.3494 27.0051C45.6108 14.3815 56.2528 4.17697 67.1166 4.17697C73.5462 4.17697 78.5568 7.78373 81.2617 13.2818C81.6607 14.0736 80.9956 14.2935 80.9956 14.2935L60.6427 25.7296C60.6427 25.7296 59.7559 26.1694 59.8445 25.1578C59.8445 25.1578 61.2635 14.4694 61.7069 10.9067C61.7512 10.6867 61.6626 10.5988 61.6626 10.5548C61.5295 10.3788 61.3078 10.1149 61.1748 9.93899C61.0861 9.85102 60.9974 9.93899 60.9974 10.027C60.1993 14.4255 57.8935 27.5769 57.8935 27.5769C57.8935 27.5769 57.9378 27.7969 58.1152 27.7529C60.8644 26.5653 84.676 16.3168 88.8885 14.4694C89.8196 14.0736 89.7753 13.3258 89.6423 13.0179C86.5383 5.76042 79.754 0.965944 71.0187 0.965944C57.3614 0.922083 44.2805 12.5781 41.7087 26.9612Z" fill="#039BE5"/>
</svg>
